<svg preserveAspectRatio="none" width="100%" height="100%" overflow="visible" style="display: block;" viewBox="0 0 16.8857 24" fill="none" xmlns="http://www.w3.org/2000/svg">
<g id="Group">
<path id="Vector" d="M7.58572 0H9.27858C12.0643 0 14.0786 2.27143 14.3357 5.05714C14.6571 8.42143 16.4571 12.2143 14.3357 14.85C12.4714 17.1429 4.60715 16.9286 2.52858 14.85C0.128578 12.45 2.16429 8.42143 2.52858 5.05714C2.80715 2.27143 4.77858 0 7.58572 0Z" fill="url(#paint0_radial_0_4)"/>
<path id="Vector_2" d="M14.0571 17.4643C13.6071 17.3143 13.1357 17.2286 12.6429 17.2286H10.95V15.45L5.89286 15.4286V17.2071H4.20001C3.68572 17.2071 3.21429 17.2929 2.76429 17.4429V21.8571H14.0357V17.4643H14.0571Z" fill="url(#paint1_linear_0_4)"/>
<path id="Vector_3" d="M14.0571 17.4643C13.6071 17.3143 13.1357 17.2286 12.6429 17.2286H10.95V15.45L5.89286 15.4286V17.2071H4.20001C3.68572 17.2071 3.21429 17.2929 2.76429 17.4429V21.8571H14.0357V17.4643H14.0571Z" fill="url(#paint2_linear_0_4)"/>
<path id="Vector_4" d="M14.2929 7.95C12.3857 7.52143 11.1214 6.75 8.25 4.86429C8.42143 6.19286 9.98571 7.28572 9.98571 7.28572C9.98571 7.28572 5.78571 6.85715 4.99286 5.22857C4.54286 6.66429 2.55 7.95 2.55 7.95C0.27857 7.95 0.235713 11.4214 2.55 11.5071C2.76428 13.2643 3.79286 16.9714 8.42143 16.9714C13.05 16.9714 14.0786 13.2643 14.2929 11.5071C16.6071 11.4214 16.5643 7.95 14.2929 7.95Z" fill="url(#paint3_radial_0_4)"/>
<path id="Vector_5" d="M5.78572 9.87857C6.23543 9.87857 6.6 9.514 6.6 9.06429C6.6 8.61457 6.23543 8.25 5.78572 8.25C5.336 8.25 4.97143 8.61457 4.97143 9.06429C4.97143 9.514 5.336 9.87857 5.78572 9.87857Z" fill="url(#paint4_linear_0_4)"/>
<path id="Vector_6" d="M11.0571 9.87857C11.5069 9.87857 11.8714 9.514 11.8714 9.06429C11.8714 8.61457 11.5069 8.25 11.0571 8.25C10.6074 8.25 10.2429 8.61457 10.2429 9.06429C10.2429 9.514 10.6074 9.87857 11.0571 9.87857Z" fill="url(#paint5_linear_0_4)"/>
<path id="Vector_7" d="M14.0571 17.4643L11.1643 20.3571C9.64286 21.8786 7.17857 21.8786 5.67857 20.3571L2.78571 17.4643C1.15714 18.0429 0 19.6071 0 21.4286C0 22.35 0.192857 22.8 1.69286 23.1214C1.69286 23.1214 6.72857 24 8.44286 24C10.1571 24 15.1929 23.1214 15.1929 23.1214C16.6929 22.8 16.8857 22.3714 16.8857 21.4286C16.8429 19.6071 15.6857 18.0429 14.0571 17.4643Z" fill="url(#paint6_linear_0_4)"/>
</g>
<defs>
<radialGradient id="paint0_radial_0_4" cx="0" cy="0" r="1" gradientUnits="userSpaceOnUse" gradientTransform="translate(1.87372 1.81498) scale(18.8087)">
<stop stop-color="#866C62"/>
<stop offset="0.187" stop-color="#79625A"/>
<stop offset="0.7079" stop-color="#5B4B46"/>
<stop offset="1" stop-color="#4F423F"/>
</radialGradient>
<linearGradient id="paint1_linear_0_4" x1="8.41636" y1="21.8816" x2="8.41636" y2="15.4286" gradientUnits="userSpaceOnUse">
<stop stop-color="#FFB8A6"/>
<stop offset="0.4193" stop-color="#FFB6A4"/>
<stop offset="0.5912" stop-color="#FDAF9E"/>
<stop offset="0.7177" stop-color="#FBA392"/>
<stop offset="0.822" stop-color="#F89182"/>
<stop offset="0.9117" stop-color="#F47B6E"/>
<stop offset="0.9423" stop-color="#F27165"/>
</linearGradient>
<linearGradient id="paint2_linear_0_4" x1="8.41636" y1="21.8816" x2="8.41636" y2="15.4286" gradientUnits="userSpaceOnUse">
<stop stop-color="#FFB8A6" stop-opacity="0"/>
<stop offset="0.3357" stop-color="#FFB6A4" stop-opacity="0.4049"/>
<stop offset="0.4946" stop-color="#FDAE9D" stop-opacity="0.5965"/>
<stop offset="0.6162" stop-color="#FBA191" stop-opacity="0.7432"/>
<stop offset="0.7189" stop-color="#F88F81" stop-opacity="0.8671"/>
<stop offset="0.8088" stop-color="#F3776B" stop-opacity="0.9755"/>
<stop offset="0.8291" stop-color="#F27165"/>
</linearGradient>
<radialGradient id="paint3_radial_0_4" cx="0" cy="0" r="1" gradientUnits="userSpaceOnUse" gradientTransform="translate(1.5024 5.1986) scale(15.7739 15.7738)">
<stop stop-color="#FFB8A6"/>
<stop offset="0.4432" stop-color="#FFB6A4"/>
<stop offset="0.6343" stop-color="#FFAF9E"/>
<stop offset="0.7769" stop-color="#FEA292"/>
<stop offset="0.8946" stop-color="#FD9182"/>
<stop offset="0.9971" stop-color="#FC7A6E"/>
<stop offset="1" stop-color="#FC796D"/>
</radialGradient>
<linearGradient id="paint4_linear_0_4" x1="4.68296" y1="8.10094" x2="6.12489" y2="9.33964" gradientUnits="userSpaceOnUse">
<stop stop-color="#505354"/>
<stop offset="1" stop-color="#353738"/>
</linearGradient>
<linearGradient id="paint5_linear_0_4" x1="9.99002" y1="8.05086" x2="11.3867" y2="9.38106" gradientUnits="userSpaceOnUse">
<stop stop-color="#505354"/>
<stop offset="1" stop-color="#353738"/>
</linearGradient>
<linearGradient id="paint6_linear_0_4" x1="8.42143" y1="24" x2="8.42143" y2="17.4621" gradientUnits="userSpaceOnUse">
<stop stop-color="#F55547"/>
<stop offset="1" stop-color="#FC907E"/>
</linearGradient>
</defs>
</svg>
