<svg preserveAspectRatio="none" width="100%" height="100%" overflow="visible" style="display: block;" viewBox="0 0 17.1237 24" fill="none" xmlns="http://www.w3.org/2000/svg">
<g id="Group">
<path id="Vector" d="M12.7797 17.2071H4.33682C2.00111 17.2071 0.115396 19.0929 0.115396 21.4286C0.115396 22.35 0.308253 22.8 1.80825 23.1214C1.80825 23.1214 6.84397 24 8.55825 24C10.2725 24 15.3083 23.1214 15.3083 23.1214C16.8083 22.8 17.0011 22.3714 17.0011 21.4286C16.9797 19.0929 15.094 17.2071 12.7797 17.2071Z" fill="url(#paint0_linear_0_4)"/>
<path id="Vector_2" d="M15.0511 16.3929C14.344 14.4 11.5154 13.6929 11.5154 13.6929C2.64397 13.6929 14.4511 13.6929 5.57968 13.6929C5.57968 13.6929 2.75111 14.4 2.04397 16.3929L3.8654 19.3286L8.55825 18.7714L12.7797 19.5L15.0511 16.3929Z" fill="url(#paint1_linear_0_4)"/>
<path id="Vector_3" d="M10.7868 14.3786C8.15111 14.3786 8.94397 14.3786 6.32968 14.3786C5.40825 14.9143 2.57968 17.9143 2.57968 18.0214L3.30825 19.5C19.0368 19.5 -1.89889 19.5 13.8297 19.5L14.5583 18.0214C14.5368 17.9143 11.7083 14.9143 10.7868 14.3786Z" fill="url(#paint2_linear_0_4)"/>
<path id="Vector_4" d="M1.48683 18.2571L2.0654 16.3929C2.0654 16.3929 3.15826 17.8286 8.55826 19.5C7.57254 21.15 3.37254 20.8071 1.78683 19.35C1.48683 19.0714 1.35826 18.6429 1.48683 18.2571Z" fill="url(#paint3_linear_0_4)"/>
<path id="Vector_5" d="M15.6297 18.2571L15.0511 16.3929C15.0511 16.3929 13.9583 17.8286 8.55826 19.5C9.54397 21.15 13.744 20.8071 15.3297 19.35C15.6297 19.0714 15.7583 18.6429 15.6297 18.2571Z" fill="url(#paint4_linear_0_4)"/>
<path id="Vector_6" d="M5.53682 22.6071V19.8857C5.53682 19.7357 5.66539 19.6071 5.81539 19.6071C5.96539 19.6071 6.09396 19.7357 6.09396 19.8857V22.6071H5.53682Z" fill="var(--fill-0, white)"/>
<path id="Vector_7" d="M6.28683 21.6857V22.7357C6.28683 22.9929 6.07254 23.2071 5.8154 23.2071C5.55826 23.2071 5.34397 22.9929 5.34397 22.7357V21.6857H6.28683Z" fill="url(#paint5_linear_0_4)"/>
<path id="Vector_8" d="M11.5797 22.6071V19.8857C11.5797 19.7357 11.4511 19.6071 11.3011 19.6071C11.1511 19.6071 11.0225 19.7357 11.0225 19.8857V22.6071H11.5797Z" fill="var(--fill-0, white)"/>
<path id="Vector_9" d="M10.8297 21.6857V22.7357C10.8297 22.9929 11.044 23.2071 11.3011 23.2071C11.5583 23.2071 11.7725 22.9929 11.7725 22.7357V21.6857H10.8297Z" fill="url(#paint6_linear_0_4)"/>
<path id="Vector_10" d="M8.55825 19.7357C8.55825 19.7357 6.02968 18.6 6.02968 17.2071V15.5143H11.0868V17.2071C11.0868 18.6214 8.55825 19.7357 8.55825 19.7357Z" fill="url(#paint7_linear_0_4)"/>
<path id="Vector_11" d="M11.0868 16.5214C20.0868 18.6 18.844 0 8.55825 0C-1.70603 0 -2.97032 18.6 6.02968 16.5214H11.0868Z" fill="url(#paint8_radial_0_4)"/>
<path id="Vector_12" d="M14.4297 7.95C14.4297 7.95 11.0654 7.82143 9.28682 6.12857C8.87968 5.74286 8.23682 5.74286 7.80825 6.12857C6.02968 7.82143 2.66539 7.95 2.66539 7.95C0.393965 7.95 0.351108 11.4214 2.66539 11.5071C2.87968 13.2643 3.90825 16.9714 8.53682 16.9714C13.1654 16.9714 14.194 13.2643 14.4083 11.5071C16.744 11.4214 16.7011 7.95 14.4297 7.95Z" fill="url(#paint9_radial_0_4)"/>
<path id="Vector_13" d="M5.92254 9.87857C6.37225 9.87857 6.73682 9.514 6.73682 9.06429C6.73682 8.61457 6.37225 8.25 5.92254 8.25C5.47282 8.25 5.10825 8.61457 5.10825 9.06429C5.10825 9.514 5.47282 9.87857 5.92254 9.87857Z" fill="url(#paint10_linear_0_4)"/>
<path id="Vector_14" d="M11.194 9.87857C11.6437 9.87857 12.0083 9.514 12.0083 9.06429C12.0083 8.61457 11.6437 8.25 11.194 8.25C10.7443 8.25 10.3797 8.61457 10.3797 9.06429C10.3797 9.514 10.7443 9.87857 11.194 9.87857Z" fill="url(#paint11_linear_0_4)"/>
</g>
<defs>
<linearGradient id="paint0_linear_0_4" x1="8.55825" y1="24" x2="8.55825" y2="17.2163" gradientUnits="userSpaceOnUse">
<stop stop-color="#D3D3F3"/>
<stop offset="1" stop-color="#F2F2FF"/>
</linearGradient>
<linearGradient id="paint1_linear_0_4" x1="8.55825" y1="19.5" x2="8.55825" y2="13.7025" gradientUnits="userSpaceOnUse">
<stop stop-color="#726987"/>
<stop offset="1" stop-color="#BEBEEB"/>
</linearGradient>
<linearGradient id="paint2_linear_0_4" x1="8.55825" y1="19.5" x2="8.55825" y2="14.386" gradientUnits="userSpaceOnUse">
<stop stop-color="#BEBEEB"/>
<stop offset="1" stop-color="#9590AB"/>
</linearGradient>
<linearGradient id="paint3_linear_0_4" x1="5.00008" y1="20.6" x2="5.00008" y2="16.4016" gradientUnits="userSpaceOnUse">
<stop stop-color="#D3D3F3"/>
<stop offset="1" stop-color="#F2F2FF"/>
</linearGradient>
<linearGradient id="paint4_linear_0_4" x1="12.1164" y1="20.6" x2="12.1164" y2="16.4016" gradientUnits="userSpaceOnUse">
<stop stop-color="#D3D3F3"/>
<stop offset="1" stop-color="#F2F2FF"/>
</linearGradient>
<linearGradient id="paint5_linear_0_4" x1="5.3192" y1="22.4498" x2="6.27819" y2="22.4498" gradientUnits="userSpaceOnUse">
<stop stop-color="#BEBEEB"/>
<stop offset="1" stop-color="#9590AB"/>
</linearGradient>
<linearGradient id="paint6_linear_0_4" x1="10.8335" y1="22.4498" x2="11.7924" y2="22.4498" gradientUnits="userSpaceOnUse">
<stop stop-color="#BEBEEB"/>
<stop offset="1" stop-color="#9590AB"/>
</linearGradient>
<linearGradient id="paint7_linear_0_4" x1="8.55825" y1="19.7436" x2="8.55825" y2="15.5314" gradientUnits="userSpaceOnUse">
<stop stop-color="#FFB8A6"/>
<stop offset="0.1655" stop-color="#FEB3A2"/>
<stop offset="0.3534" stop-color="#FCA695"/>
<stop offset="0.5514" stop-color="#F78F80"/>
<stop offset="0.7476" stop-color="#F27165"/>
</linearGradient>
<radialGradient id="paint8_radial_0_4" cx="0" cy="0" r="1" gradientUnits="userSpaceOnUse" gradientTransform="translate(1.62585 2.12053) scale(19.4295)">
<stop stop-color="#505354"/>
<stop offset="1" stop-color="#292B2B"/>
</radialGradient>
<radialGradient id="paint9_radial_0_4" cx="0" cy="0" r="1" gradientUnits="userSpaceOnUse" gradientTransform="translate(0.408643 5.60882) scale(16.4247 16.4247)">
<stop stop-color="#FFB8A6"/>
<stop offset="0.3779" stop-color="#FFB6A4"/>
<stop offset="0.5856" stop-color="#FFAE9D"/>
<stop offset="0.752" stop-color="#FEA090"/>
<stop offset="0.8955" stop-color="#FD8D7F"/>
<stop offset="1" stop-color="#FC796D"/>
</radialGradient>
<linearGradient id="paint10_linear_0_4" x1="4.81978" y1="8.10094" x2="6.26171" y2="9.33964" gradientUnits="userSpaceOnUse">
<stop stop-color="#505354"/>
<stop offset="1" stop-color="#353738"/>
</linearGradient>
<linearGradient id="paint11_linear_0_4" x1="10.1269" y1="8.05086" x2="11.5236" y2="9.38106" gradientUnits="userSpaceOnUse">
<stop stop-color="#505354"/>
<stop offset="1" stop-color="#353738"/>
</linearGradient>
</defs>
</svg>
