<svg preserveAspectRatio="none" width="100%" height="100%" overflow="visible" style="display: block;" viewBox="0 0 16.9008 24" fill="none" xmlns="http://www.w3.org/2000/svg">
<g id="Group">
<path id="Vector" d="M9.90885 21.0617L10.9812 23.7855C12.9759 23.5282 15.2064 23.1421 15.2064 23.1421C16.7078 22.8204 16.9008 22.3914 16.9008 21.4477V19.2601C16.9008 18.4021 16.2359 17.7158 15.3995 17.6515L11.0027 17.3727L9.90885 21.0617Z" fill="url(#paint0_linear_0_4)"/>
<path id="Vector_2" d="M6.99196 21.0617L5.91957 23.7855C3.92493 23.5282 1.69437 23.1421 1.69437 23.1421C0.193029 22.8204 0 22.3914 0 21.4477V19.2601C0 18.4021 0.664879 17.7158 1.50134 17.6515L5.89812 17.3727L6.99196 21.0617Z" fill="url(#paint1_linear_0_4)"/>
<path id="Vector_3" d="M4.61126 15.7212C4.61126 15.7212 3.06702 16.622 2.23056 18.1233C2.10188 18.3592 2.16622 18.6595 2.40214 18.8311L4.05362 19.9678L3.3244 21.1046C3.17426 21.3405 3.23861 21.6622 3.45308 21.8338C3.96783 22.1984 4.89008 22.8204 5.91957 23.2922L6.45576 20.311L5.91957 15.7212H4.61126Z" fill="url(#paint2_linear_0_4)"/>
<path id="Vector_4" d="M14.6702 18.1019C13.8552 16.622 12.2895 15.6997 12.2895 15.6997H10.9812L10.445 19.3244L10.9812 23.2708C12.0107 22.7775 12.9544 22.1769 13.4477 21.8123C13.6836 21.6408 13.748 21.319 13.5764 21.0831L12.8472 19.9464L14.4987 18.8097C14.7346 18.6595 14.7989 18.3593 14.6702 18.1019Z" fill="url(#paint3_linear_0_4)"/>
<path id="Vector_5" d="M8.4504 17.2225L5.91957 17.3727C5.91957 19.1314 5.91957 21.8552 5.91957 23.7641C6.92761 23.8928 7.87131 24 8.4504 24C9.02949 24 9.97319 23.8928 10.9812 23.7641C10.9812 22.4558 10.9812 20.4397 10.9812 17.3727L8.4504 17.2225Z" fill="url(#paint4_linear_0_4)"/>
<path id="Vector_6" d="M5.91957 15.4424V17.7587C5.91957 19.1528 8.4504 20.2895 8.4504 20.2895C8.4504 20.2895 10.9812 19.1528 10.9812 17.7587V15.4638L5.91957 15.4424Z" fill="url(#paint5_linear_0_4)"/>
<path id="Vector_7" d="M5.98392 2.40214C5.98392 1.07239 7.05631 0 8.38606 0C9.71582 0 10.7882 1.07239 10.7882 2.40214H5.98392Z" fill="url(#paint6_linear_0_4)"/>
<path id="Vector_8" d="M5.98392 3.2815C5.98392 0.107241 10.7668 0.107241 10.7668 3.2815H5.98392Z" fill="url(#paint7_linear_0_4)"/>
<path id="Vector_9" d="M2.03753 8.79357V7.12064C2.03753 -0.0857908 14.8633 -0.0857908 14.8633 7.12064V8.79357H2.03753Z" fill="url(#paint8_linear_0_4)"/>
<path id="Vector_10" d="M8.45041 1.71582C-0.0643402 1.71582 4.54692 6.17694 5.01877 6.36997L8.45041 8.68633L11.882 6.36997C12.3539 6.17694 16.9652 1.71582 8.45041 1.71582Z" fill="url(#paint9_linear_0_4)"/>
<path id="Vector_11" d="M8.45041 16.9866C13.0831 16.9866 14.1126 13.2761 14.3271 11.5174C16.6434 11.4316 16.6005 7.9571 14.3271 7.9571C14.3271 7.4638 13.0188 5.79088 11.5174 5.79088C10.6166 5.81233 9.35121 6.43431 8.45041 6.43431C7.5496 6.43431 6.28419 5.81233 5.38338 5.79088C3.88204 5.76943 2.57373 7.44235 2.57373 7.9571C0.300274 7.9571 0.257379 11.4316 2.57373 11.5174C2.78821 13.2547 3.8177 16.9866 8.45041 16.9866Z" fill="url(#paint10_radial_0_4)"/>
<path id="Vector_12" d="M5.81233 9.8874C6.26245 9.8874 6.62734 9.52251 6.62734 9.07239C6.62734 8.62227 6.26245 8.25737 5.81233 8.25737C5.36221 8.25737 4.99732 8.62227 4.99732 9.07239C4.99732 9.52251 5.36221 9.8874 5.81233 9.8874Z" fill="url(#paint11_linear_0_4)"/>
<path id="Vector_13" d="M11.0885 9.8874C11.5386 9.8874 11.9035 9.52251 11.9035 9.07239C11.9035 8.62227 11.5386 8.25737 11.0885 8.25737C10.6384 8.25737 10.2735 8.62227 10.2735 9.07239C10.2735 9.52251 10.6384 9.8874 11.0885 9.8874Z" fill="url(#paint12_linear_0_4)"/>
</g>
<defs>
<linearGradient id="paint0_linear_0_4" x1="13.3949" y1="23.7881" x2="13.3949" y2="17.387" gradientUnits="userSpaceOnUse">
<stop stop-color="#303232"/>
<stop offset="0.7015" stop-color="#454849"/>
<stop offset="1" stop-color="#505354"/>
</linearGradient>
<linearGradient id="paint1_linear_0_4" x1="3.50587" y1="23.7881" x2="3.50587" y2="17.387" gradientUnits="userSpaceOnUse">
<stop stop-color="#303232"/>
<stop offset="0.7015" stop-color="#454849"/>
<stop offset="1" stop-color="#505354"/>
</linearGradient>
<linearGradient id="paint2_linear_0_4" x1="4.31155" y1="23.28" x2="4.31155" y2="15.7122" gradientUnits="userSpaceOnUse">
<stop stop-color="#181A1A"/>
<stop offset="0.1453" stop-color="#222424"/>
<stop offset="0.7004" stop-color="#434647"/>
<stop offset="1" stop-color="#505354"/>
</linearGradient>
<linearGradient id="paint3_linear_0_4" x1="12.5893" y1="23.28" x2="12.5893" y2="15.7122" gradientUnits="userSpaceOnUse">
<stop stop-color="#181A1A"/>
<stop offset="0.1453" stop-color="#222424"/>
<stop offset="0.7004" stop-color="#434647"/>
<stop offset="1" stop-color="#505354"/>
</linearGradient>
<linearGradient id="paint4_linear_0_4" x1="8.4504" y1="24.0214" x2="8.4504" y2="17.2284" gradientUnits="userSpaceOnUse">
<stop stop-color="#D9D9D9"/>
<stop offset="0.4697" stop-color="#E5E5E5"/>
<stop offset="1" stop-color="#EDEDED"/>
</linearGradient>
<linearGradient id="paint5_linear_0_4" x1="8.4504" y1="20.2974" x2="8.4504" y2="15.4424" gradientUnits="userSpaceOnUse">
<stop stop-color="#FFB8A6"/>
<stop offset="0.1845" stop-color="#FEB3A2"/>
<stop offset="0.394" stop-color="#FCA695"/>
<stop offset="0.6149" stop-color="#F78F80"/>
<stop offset="0.8337" stop-color="#F27165"/>
</linearGradient>
<linearGradient id="paint6_linear_0_4" x1="5.98626" y1="1.20553" x2="10.7789" y2="1.20553" gradientUnits="userSpaceOnUse">
<stop stop-color="#505354"/>
<stop offset="1" stop-color="#292B2B"/>
</linearGradient>
<linearGradient id="paint7_linear_0_4" x1="5.98626" y1="2.08995" x2="10.7789" y2="2.08995" gradientUnits="userSpaceOnUse">
<stop stop-color="#EC6A7F"/>
<stop offset="1" stop-color="#D12E41"/>
</linearGradient>
<linearGradient id="paint8_linear_0_4" x1="8.4504" y1="8.79277" x2="8.4504" y2="1.71582" gradientUnits="userSpaceOnUse">
<stop stop-color="#1B1C1C"/>
<stop offset="0.1667" stop-color="#2A2C2C"/>
<stop offset="0.4338" stop-color="#3C3E3F"/>
<stop offset="0.7085" stop-color="#47494A"/>
<stop offset="1" stop-color="#4B4D4E"/>
</linearGradient>
<linearGradient id="paint9_linear_0_4" x1="3.3458" y1="5.19998" x2="13.555" y2="5.19998" gradientUnits="userSpaceOnUse">
<stop stop-color="#505354"/>
<stop offset="1" stop-color="#292B2B"/>
</linearGradient>
<radialGradient id="paint10_radial_0_4" cx="0" cy="0" r="1" gradientUnits="userSpaceOnUse" gradientTransform="translate(1.44526 6.40821) scale(15.5794 15.5794)">
<stop stop-color="#FFB8A6"/>
<stop offset="0.4432" stop-color="#FFB6A4"/>
<stop offset="0.6343" stop-color="#FFAF9E"/>
<stop offset="0.7769" stop-color="#FEA292"/>
<stop offset="0.8946" stop-color="#FD9182"/>
<stop offset="0.9971" stop-color="#FC7A6E"/>
<stop offset="1" stop-color="#FC796D"/>
</radialGradient>
<linearGradient id="paint11_linear_0_4" x1="4.70859" y1="8.10818" x2="6.1518" y2="9.34799" gradientUnits="userSpaceOnUse">
<stop stop-color="#505354"/>
<stop offset="1" stop-color="#353738"/>
</linearGradient>
<linearGradient id="paint12_linear_0_4" x1="10.0204" y1="8.05806" x2="11.4184" y2="9.38945" gradientUnits="userSpaceOnUse">
<stop stop-color="#505354"/>
<stop offset="1" stop-color="#353738"/>
</linearGradient>
</defs>
</svg>
