<svg preserveAspectRatio="none" width="100%" height="100%" overflow="visible" style="display: block;" viewBox="0 0 17.3187 24" fill="none" xmlns="http://www.w3.org/2000/svg">
<g id="Group">
<path id="Vector" d="M2.08791 5.53846C2.08791 10.2637 2.08791 10.1758 2.08791 10.2198H8.65934H15.2308C15.2308 10.1758 15.2308 10.2637 15.2308 5.53846C15.2308 -1.84615 2.08791 -1.84615 2.08791 5.53846Z" fill="url(#paint0_linear_0_4)"/>
<path id="Vector_2" d="M16.6154 19.033C15.8462 17.8242 14.5055 17.033 12.967 17.033H11.2308V15.2088H6.06593V17.033H4.32967L2.26373 21.0769L14.4615 21.8681L16.6154 19.033Z" fill="url(#paint1_linear_0_4)"/>
<path id="Vector_3" d="M4.32967 17.033C1.93407 17.033 0 18.967 0 21.3626C0 22.3077 0.197802 22.7692 1.73626 23.0989C1.73626 23.0989 6.9011 24 8.65934 24C10.4176 24 15.5824 23.0989 15.5824 23.0989C17.1209 22.7692 17.3187 22.3297 17.3187 21.3626C17.3187 20.5055 17.0769 19.7143 16.6374 19.033C7.78022 22.5494 4.10989 19.2308 4.32967 17.033Z" fill="url(#paint2_linear_0_4)"/>
<path id="Vector_4" d="M8.65935 16.7912C13.4066 16.7912 14.4615 12.989 14.6813 11.1868C17.055 11.0989 17.011 7.53846 14.6813 7.53846C12.2637 5.36264 12.1758 5.0989 9.6044 5.51648C9.23078 5.58242 8.54946 5.64835 7.71429 5.51648C5.14286 5.0989 5.05495 5.36264 2.63737 7.53846C0.307699 7.53846 0.263743 11.0989 2.63737 11.1868C2.85715 12.967 3.91209 16.7912 8.65935 16.7912Z" fill="url(#paint3_radial_0_4)"/>
<path id="Vector_5" d="M5.95604 9.51649C6.41729 9.51649 6.79121 9.14257 6.79121 8.68132C6.79121 8.22007 6.41729 7.84616 5.95604 7.84616C5.49479 7.84616 5.12088 8.22007 5.12088 8.68132C5.12088 9.14257 5.49479 9.51649 5.95604 9.51649Z" fill="url(#paint4_linear_0_4)"/>
<path id="Vector_6" d="M11.3626 9.51649C11.8239 9.51649 12.1978 9.14257 12.1978 8.68132C12.1978 8.22007 11.8239 7.84616 11.3626 7.84616C10.9014 7.84616 10.5275 8.22007 10.5275 8.68132C10.5275 9.14257 10.9014 9.51649 11.3626 9.51649Z" fill="url(#paint5_linear_0_4)"/>
</g>
<defs>
<linearGradient id="paint0_linear_0_4" x1="2.08756" y1="5.10336" x2="15.2311" y2="5.10336" gradientUnits="userSpaceOnUse">
<stop stop-color="#505354"/>
<stop offset="1" stop-color="#292B2B"/>
</linearGradient>
<linearGradient id="paint1_linear_0_4" x1="9.44316" y1="21.8829" x2="9.44316" y2="15.2088" gradientUnits="userSpaceOnUse">
<stop stop-color="#D48574"/>
<stop offset="0.2594" stop-color="#D18372"/>
<stop offset="0.4393" stop-color="#C87B6A"/>
<stop offset="0.5951" stop-color="#B96D5E"/>
<stop offset="0.7363" stop-color="#A35B4D"/>
<stop offset="0.8259" stop-color="#914B3E"/>
</linearGradient>
<linearGradient id="paint2_linear_0_4" x1="8.65934" y1="24" x2="8.65934" y2="17.0424" gradientUnits="userSpaceOnUse">
<stop stop-color="#EC6A7F"/>
<stop offset="1" stop-color="#F98DA4"/>
</linearGradient>
<radialGradient id="paint3_radial_0_4" cx="0" cy="0" r="1" gradientUnits="userSpaceOnUse" gradientTransform="translate(1.62715 5.07119) scale(15.7182 15.7182)">
<stop stop-color="#D48574"/>
<stop offset="0.4755" stop-color="#D28372"/>
<stop offset="0.6663" stop-color="#CB7C6C"/>
<stop offset="0.8059" stop-color="#BF7161"/>
<stop offset="0.92" stop-color="#AE6152"/>
<stop offset="1" stop-color="#9C5043"/>
</radialGradient>
<linearGradient id="paint4_linear_0_4" x1="4.82501" y1="7.69328" x2="6.30391" y2="8.96374" gradientUnits="userSpaceOnUse">
<stop stop-color="#505354"/>
<stop offset="1" stop-color="#353738"/>
</linearGradient>
<linearGradient id="paint5_linear_0_4" x1="10.2682" y1="7.64191" x2="11.7007" y2="9.00622" gradientUnits="userSpaceOnUse">
<stop stop-color="#505354"/>
<stop offset="1" stop-color="#353738"/>
</linearGradient>
</defs>
</svg>
